<svg width="20" height="20" viewBox="0 0 20 20" xmlns="http://www.w3.org/2000/svg">
    <path d="M9.317 0C4.17 0 0 4.172 0 9.318c0 5.145 4.17 9.317 9.317 9.317 5.146 0 9.317-4.172 9.317-9.317C18.634 4.172 14.464 0 9.317 0zm4.193 7.364c.007.094.007.187.007.28 0 2.862-2.177 6.157-6.156 6.157-1.225 0-2.364-.354-3.322-.97.174.02.342.027.523.027 1.012 0 1.943-.342 2.686-.925-.95-.02-1.748-.643-2.022-1.5.134.02.267.034.408.034.195 0 .39-.027.57-.074-.992-.2-1.735-1.072-1.735-2.124V8.24c.288.163.623.263.978.276-.582-.388-.964-1.05-.964-1.8 0-.404.107-.772.295-1.094C5.84 6.935 7.44 7.792 9.237 7.886c-.035-.16-.054-.328-.054-.495 0-1.192.965-2.163 2.163-2.163.623 0 1.186.262 1.58.683.49-.093.96-.274 1.374-.522-.16.502-.502.924-.95 1.192.435-.047.856-.167 1.245-.335-.295.43-.663.81-1.085 1.12z" fill="#FFF" fill-rule="evenodd"/>
</svg>
