<?xml version="1.0" encoding="utf-8"?>
<!-- Generator: Adobe Illustrator 19.1.0, SVG Export Plug-In . SVG Version: 6.00 Build 0)  -->
<svg version="1.1" id="Layer_1" xmlns="http://www.w3.org/2000/svg" xmlns:xlink="http://www.w3.org/1999/xlink" x="0px" y="0px"
	 viewBox="0 0 100 26" style="enable-background:new 0 0 100 26;" xml:space="preserve">
<style type="text/css">
	.st0{fill:#FFFFFF;}
</style>
<g>
	<path class="st0" d="M0,25.3V8.5h3.5l0.3,2.1C5.2,8.8,6.9,8,8.7,8c2.2,0,3.5,0.9,4.1,2.6c1.4-1.7,3.2-2.6,5-2.6
		c3.1,0,4.5,1.8,4.5,5v12.3h-4.1V13.5c0-1.8-0.5-2.5-1.8-2.5c-1.2,0-2.4,1-3.2,2.3v11.9H9.1V13.4c0-1.7-0.5-2.4-1.8-2.4
		c-1.2,0-2.4,1-3.2,2.3v11.9H0z"/>
	<path class="st0" d="M32.7,8c5,0,7.9,3.5,7.9,8.9c0,5.4-2.9,8.9-7.9,8.9s-7.9-3.4-7.9-8.9C24.8,11.6,27.7,8,32.7,8z M32.7,11.1
		c-2.4,0-3.7,1.8-3.7,5.8c0,4,1.3,5.8,3.7,5.8c2.4,0,3.7-1.8,3.7-5.8C36.3,12.9,35.1,11.1,32.7,11.1z"/>
	<path class="st0" d="M47.7,22.1h7.8l-0.4,3.2H43v-2.9l7.7-10.7h-7.4V8.5h12.1v2.9L47.7,22.1z"/>
	<path class="st0" d="M60.8,4.9c-1.5,0-2.6-1.1-2.6-2.5c0-1.4,1-2.4,2.6-2.4c1.5,0,2.6,1.1,2.6,2.4C63.3,3.8,62.3,4.9,60.8,4.9z
		 M58.7,25.3V8.5h4.1v16.8H58.7z"/>
	<path class="st0" d="M74.3,25.2c-0.8,0.3-1.8,0.6-2.8,0.6c-2.4,0-4-1.4-4-4.5V1.7l4.1-0.4v19.9c0,1,0.3,1.3,0.9,1.3
		c0.3,0,0.7-0.1,1-0.2L74.3,25.2z"/>
	<path class="st0" d="M83.6,25.2c-0.8,0.3-1.8,0.6-2.8,0.6c-2.4,0-4-1.4-4-4.5V1.7l4.1-0.4v19.9c0,1,0.3,1.3,0.9,1.3
		c0.3,0,0.7-0.1,1-0.2L83.6,25.2z"/>
	<path class="st0" d="M98.8,20.9c0,1.3,0.3,1.7,1.2,2.1l-0.9,2.7c-1.8-0.2-3-0.8-3.6-2.3c-1.2,1.6-3.1,2.3-5.1,2.3
		c-3.4,0-5.5-2.1-5.5-5.3c0-3.6,2.8-5.6,8-5.6h2.1v-1c0-2.1-1-2.9-3.3-2.9c-1.1,0-2.7,0.3-4.4,0.9l-1-2.8c2.1-0.8,4.3-1.2,6-1.2
		c4.7,0,6.7,2,6.7,5.7V20.9z M94.9,20.7v-3.4h-1.4c-3.1,0-4.3,1-4.3,2.9c0,1.7,0.8,2.5,2.4,2.5C93,22.8,94.1,22,94.9,20.7z"/>
</g>
</svg>
